# xmcd
#
# Track frame offsets: 
#        150
#        14105
#        41611
#        75459
#        102013
#        128152
#        155051
#        192475
#
# Disc length: 3074 seconds
#
# Revision: 0
# Processed by: cddbd v1.5.2PL0 Copyright (c) Steve Scherf et al.
# Submitted via: ExactAudioCopy v0.99pb5
#
DISCID=640c0008
DTITLE=Bernard Allison Group - LIVE at the JazzHaus
DYEAR=2011
DGENRE=Blues/Rock
TTITLE0=Send It In
TTITLE1=I Wouldn't Treat A Dog
TTITLE2=Rocket 88
TTITLE3=Tired of Tryin
TTITLE4=So Devine
TTITLE5=Black and White
TTITLE6=Life Goes On
TTITLE7=Allison Way
EXTD=
EXTT0=
EXTT1=
EXTT2=
EXTT3=
EXTT4=
EXTT5=
EXTT6=
EXTT7=
PLAYORDER=
